<?xml version="1.0" encoding="utf-8"?>
<!-- Generator: Adobe Illustrator 24.2.1, SVG Export Plug-In . SVG Version: 6.00 Build 0)  -->
<svg version="1.1" id="Capa_1" xmlns="http://www.w3.org/2000/svg" xmlns:xlink="http://www.w3.org/1999/xlink" x="0px" y="0px"
	 viewBox="0 0 512 512" style="enable-background:new 0 0 512 512;" xml:space="preserve">
<style type="text/css">
	.st0{fill:#CF3E1E;}
</style>
<g>
	<path class="st0" d="M490.8,150.7H187.3c-8.3-24.8-31.8-42.7-59.3-42.7s-51,17.9-59.3,42.7H21.2c-11,0-19.9,8.9-19.9,19.9
		s8.9,19.9,19.9,19.9h47.4c8.3,24.8,31.8,42.7,59.3,42.7s51-17.9,59.3-42.7h303.5c11,0,19.9-8.9,19.9-19.9S501.8,150.7,490.8,150.7z
		 M127.9,193.4c-12.6,0-22.8-10.2-22.8-22.8c0-12.6,10.2-22.8,22.8-22.8s22.8,10.2,22.8,22.8C150.7,183.2,140.5,193.4,127.9,193.4z"
		/>
	<path class="st0" d="M490.8,321.5h-47.4c-8.3-24.8-31.8-42.7-59.3-42.7s-51,17.9-59.3,42.7H21.2c-11,0-19.9,8.9-19.9,19.9
		s8.9,19.9,19.9,19.9h303.5c8.3,24.8,31.8,42.7,59.3,42.7s51-17.9,59.3-42.7h47.4c11,0,19.9-8.9,19.9-19.9S501.8,321.5,490.8,321.5z
		 M384.1,364.1c-12.6,0-22.8-10.2-22.8-22.8s10.2-22.8,22.8-22.8c12.6,0,22.8,10.2,22.8,22.8S396.6,364.1,384.1,364.1z"/>
</g>
</svg>
