<svg xmlns="http://www.w3.org/2000/svg" viewBox="0 0 705.02 249.27"><defs><style>.cls-1{fill:#cf3e1e;}.cls-2,.cls-3{isolation:isolate;}.cls-3{font-size:72.69px;fill:#282828;font-family:Catamaran-Bold, Catamaran;font-weight:700;}.cls-4{fill:none;stroke:#282828;stroke-miterlimit:10;stroke-width:3px;}</style></defs><g id="Layer_2" data-name="Layer 2"><g id="Layer_1-2" data-name="Layer 1"><g id="Layer_2-2" data-name="Layer 2"><g id="Layer_1-2-2" data-name="Layer 1-2"><path class="cls-1" d="M242.69,233.35l-.32-.08-6.53-26.14a7.29,7.29,0,0,0-3.65-4.66c-2.76-1.46-66-34.39-108.09-9.95C82,168.08,18.77,201,16,202.47a7.2,7.2,0,0,0-3.65,4.66L5.82,233.27l-.32.08a7.27,7.27,0,1,0,3.58,14.09l81.17-20.63a38.31,38.31,0,0,0,67.7,0l81.16,20.63a7.27,7.27,0,1,0,3.58-14.09Z"/><path class="cls-1" d="M24.71,177.25A154.4,154.4,0,0,1,46.59,175C58.75,171.6,72.8,169,87.11,169h0a104.06,104.06,0,0,1,14,.92c-10-4.75-21.92-7.78-35.54-9A170.74,170.74,0,0,0,21.86,163a7.27,7.27,0,1,0,2.85,14.26Z"/><path class="cls-1" d="M161.08,169c14.3,0,28.35,2.65,40.51,6.05a154.79,154.79,0,0,1,21.9,2.22A7.27,7.27,0,0,0,226.33,163h0A170.89,170.89,0,0,0,182.6,161c-13.63,1.18-25.54,4.21-35.55,9a104,104,0,0,1,14-.92Z"/><path class="cls-1" d="M207.46,32h6.3v6.3a7.27,7.27,0,0,0,14.54,0V32h6.3a7.27,7.27,0,1,0,0-14.54h-6.3v-6.3a7.27,7.27,0,0,0-14.54,0v6.3h-6.3a7.27,7.27,0,0,0,0,14.54Z"/><path class="cls-1" d="M162.87,142.49a7.29,7.29,0,0,0,2.8-.56l46.52-19.38A7.27,7.27,0,0,0,206.84,109l-.24.1-46.53,19.38a7.27,7.27,0,0,0,2.8,14Z"/><path class="cls-1" d="M137.92,134.54a7.37,7.37,0,0,0,1.69.2,7.29,7.29,0,0,0,7.07-5.59L166,47.73A7.27,7.27,0,1,0,152,44c0,.11-.06.22-.08.33l-19.39,81.42a7.28,7.28,0,0,0,5.41,8.76Z"/><path class="cls-1" d="M101.39,128.5a7.27,7.27,0,0,0,7.19,6.24,6.74,6.74,0,0,0,1-.08,7.25,7.25,0,0,0,6.17-8.2v0L108,72.16a7.27,7.27,0,0,0-14.4,2Z"/><path class="cls-1" d="M25.9,83.55a7.27,7.27,0,0,0,0,10.28l46.53,46.53a7.27,7.27,0,1,0,10.44-10.11l-.16-.17L36.18,83.55A7.27,7.27,0,0,0,25.9,83.55Z"/><circle class="cls-1" cx="190.01" cy="73.18" r="7.27"/><circle class="cls-1" cx="124.1" cy="30.53" r="7.27"/><circle class="cls-1" cx="11.65" cy="131.34" r="7.27"/><circle class="cls-1" cx="23.29" cy="22.78" r="22.78"/><g class="cls-2"><text class="cls-3" transform="translate(405.24 77.81)">MAGICAL</text><text class="cls-3" transform="translate(405.24 149.83)">BOOKS</text><text class="cls-3" transform="translate(405.24 221.87)">LIBRARY</text></g><line class="cls-4" x1="332.25" x2="332.25" y2="247.67"/></g></g></g></g></svg>